<?xml version="1.0" encoding="UTF-8"?>
<svg xmlns="http://www.w3.org/2000/svg" viewBox="0 0 143.04 189.18">
  <g id="Layer_1" data-name="Layer 1">
    <path d="M0,189.18,60.24,37.5c-.01-1.2,0-2.4,0-3.6H5.52v150.24h54.72c0-13.68,0-27.36,0-41.04,6.5.05,12.74-2.07,19.2-2.64l-.23,17.15c.28,1.52,3.75,1.15,3.81-.22.02-.32-.23-.77-.23-1.21,0-5.56-.43-11.08-.19-16.66,5.16-1.34,9.8-7.05,15.09-2.56,3.57,3.03,2.81,9.25,1.85,13.37-.72,3.1-2.14,5.75-2.73,9.03-1.31,7.24-.12,14.09,2.06,21.02l2.5.59c1.51-.82.95-2.4,1.15-3.67.12-.78.72-1.19.73-2.17,0-1.8-1.85-5.41-2.11-7.75-.92-8.14,5.14-17.75,5.7-26.08.3-4.5-1.33-9.45-.74-13.7.14-1.02,1.73-2.72,2.18-4.06,1.41-4.18.04-10.3-5.05-10.93.24-1.05.74-2.12.73-3.23-.04-3.59-1.96-9.02-2.57-12.81-.46-2.87-1.15-9.28-.01-11.86.4-.9,1.32-1.35,1.56-2.76.12-.74.19-3.59,0-4.21-.37-1.24-3.68-2.9-3.91-3.29s-.12-1.29-.55-2.09c-1.49-2.79-6.76-2.24-8.07.57-3.88,0-5.03-2.52-4.95-6.05.17-6.98,3.63-15.02-.42-21.64-3.17-5.17-10.62-6.48-16.24-6.8-1.55-.09-3.93.28-5.29.01-.66-.13-.58-.78-.99-.93-.48-.16-1.63-.03-2.24-.04Z" fill="#fff"/>
    <path d="M60.24,37.5c.17,19.59,0,39.21,0,58.8-5.76,0-11.52,0-17.28,0v3.36c1.56-.04,3.13.05,4.69,0,4.18-.12,8.38-.24,12.59-.25,0,14.56,0,29.12,0,43.68-6.47-.05-12.82-2.01-19.2-2.88v16.68c0,.13.37.44.22.92-.3.94-3.36.95-3.77-.22l.32-18.1c-5.08-1.45-10.24-7.26-15.38-2.4-5.78,5.47.26,16.69,1.26,23,.77,4.87.45,9.17-.53,13.97-.43,2.1-1.05,4.19-1.68,6.24-1.54.43-3,1.26-3.43-.9-.17-.84.14-1.56.07-2.11-.04-.31-.61-.84-.74-1.31-.45-1.6,1.73-6.14,1.98-8.35.96-8.42-5.12-18-5.69-26.58-.29-4.31,1.45-9.7.71-13.67-.13-.68-1.33-2.01-1.71-2.85-1.38-2.99-1.34-8.68,1.64-10.68.59-.39,2.85-1.06,2.95-1.39-1.07-2.52-.38-5,.08-7.58,1.02-5.7,3.82-14.22,1.93-19.83-.39-1.17-1.44-1.54-1.7-3.34-.36-2.53-.33-4.01,1.61-5.7.48-.41,2.11-1.28,2.28-1.56.25-.43.21-1.3.6-2.04,1.14-2.16,5.08-2.3,6.85-.84.55.46.75,1.36,1.45,1.45,4.09-.23,4.82-3.04,4.68-6.62-.28-6.95-3.52-14.53.46-21.12,3.42-5.65,12.33-6.77,18.37-6.85.95-.01,1.87.45,2.87.25.87-.17.97-1.13,1.26-1.2.48-.12,1.63,0,2.23,0ZM35.7,77.64c-2.33-2.18-6.88,4.47-9.77,3.31.09,1.25-1.01,1.91-1.65,2.8l.68,6.43-1.2,15.72c4.85-2.41,9.79-4.84,15.19-5.8.21-.04.31-.15.37-.35.12-.36.11-4.78-.02-5.2-.13-.44-.94-.93-1.26-1.38-.87-1.27-1.4-3.41-1.54-4.94-.19-2.08.47-9.39-.81-10.59Z" fill="#fff"/>
    <path d="M60.24,96.3c5.68,0,11.36,0,17.04,0v3.36c-5.65-.38-11.36-.26-17.04-.24,0-1.04,0-2.08,0-3.12Z" fill="#fff"/>
    <path d="M60.24,143.1c0,13.68,0,27.36,0,41.04H5.52V33.9h54.72c0,1.2-.01,2.4,0,3.6-.6,0-1.75-.12-2.23,0-.28.07-.38,1.03-1.26,1.2-1,.2-1.92-.27-2.87-.25-6.03.09-14.95,1.2-18.37,6.85-3.99,6.59-.74,14.16-.46,21.12.14,3.57-.59,6.38-4.68,6.62-.7-.09-.9-.99-1.45-1.45-1.76-1.46-5.71-1.32-6.85.84-.39.74-.35,1.61-.6,2.04-.17.29-1.8,1.15-2.28,1.56-1.94,1.69-1.98,3.17-1.61,5.7.26,1.8,1.31,2.17,1.7,3.34,1.88,5.61-.91,14.13-1.93,19.83-.46,2.58-1.15,5.06-.08,7.58-.1.33-2.36,1-2.95,1.39-2.98,2-3.02,7.7-1.64,10.68.39.84,1.59,2.17,1.71,2.85.74,3.97-.99,9.36-.71,13.67.57,8.58,6.65,18.16,5.69,26.58-.25,2.21-2.43,6.76-1.98,8.35.13.46.7.99.74,1.31.07.55-.24,1.27-.07,2.11.43,2.16,1.89,1.33,3.43.9.62-2.05,1.25-4.14,1.68-6.24.98-4.81,1.3-9.1.53-13.97-1-6.31-7.04-17.53-1.26-23,5.14-4.86,10.3.95,15.38,2.4l-.32,18.1c.41,1.17,3.47,1.16,3.77.22.15-.47-.22-.78-.22-.92v-16.68c6.38.87,12.73,2.83,19.2,2.88Z" fill="#4d4d4d"/>
    <path d="M60.24,37.5c.61,0,1.76-.13,2.24.04.42.14.34.8.99.93,1.36.26,3.75-.1,5.29-.01,5.62.33,13.07,1.63,16.24,6.8,4.06,6.62.59,14.65.42,21.64-.09,3.53,1.06,6.06,4.95,6.05,1.31-2.81,6.59-3.36,8.07-.57.43.81.32,1.7.55,2.09s3.55,2.05,3.91,3.29c.19.62.12,3.48,0,4.21-.24,1.41-1.17,1.86-1.56,2.76-1.13,2.58-.45,8.99.01,11.86.61,3.79,2.54,9.22,2.57,12.81.01,1.11-.49,2.17-.73,3.23,5.09.63,6.46,6.75,5.05,10.93-.45,1.34-2.04,3.04-2.18,4.06-.59,4.25,1.04,9.2.74,13.7-.56,8.34-6.62,17.94-5.7,26.08.26,2.34,2.12,5.95,2.11,7.75,0,.99-.61,1.39-.73,2.17-.2,1.27.37,2.86-1.15,3.67l-2.5-.59c-2.17-6.93-3.37-13.78-2.06-21.02.59-3.28,2.01-5.93,2.73-9.03.96-4.12,1.72-10.34-1.85-13.37-5.28-4.49-9.93,1.22-15.09,2.56-.23,5.57.2,11.1.19,16.66,0,.44.25.89.23,1.21-.07,1.37-3.53,1.73-3.81.22l.23-17.15c-6.46.57-12.7,2.69-19.2,2.64,0-14.56,0-29.12,0-43.68,5.68-.02,11.39-.14,17.04.24v-3.36c-5.68,0-11.36,0-17.04,0,0-19.59.17-39.21,0-58.8ZM94.3,80.97c-.1-.09-1.81-.06-2.61-.39-1.72-.69-6.15-5.79-7.33-1.81-1.32,4.42,1.01,10.11-1.92,14.4-.31.46-1.12.94-1.26,1.38-.11.36-.16,4.87-.06,5.2,5.37,1.39,10.61,3.28,15.37,6.15.04-6.85-1.63-13.65-.71-20.51.06-.45.45-.82.45-1.21,0-.83-1.21-1.53-1.64-2.19-.2-.31-.24-.97-.29-1.02Z" fill="#333"/>
    <path d="M60.24,96.3c0,1.04,0,2.08,0,3.12-4.21.01-8.41.13-12.59.25-1.56.04-3.13-.05-4.69,0v-3.36c5.76,0,11.52,0,17.28,0Z" fill="#4d4d4d"/>
    <path d="M94.3,80.97c.06.05.1.72.29,1.02.43.67,1.65,1.36,1.64,2.19,0,.39-.39.76-.45,1.21-.92,6.86.74,13.66.71,20.51-4.76-2.87-10-4.76-15.37-6.15-.09-.34-.04-4.84.06-5.2.13-.44.94-.93,1.26-1.38,2.93-4.29.6-9.97,1.92-14.4,1.19-3.98,5.62,1.12,7.33,1.81.8.32,2.51.3,2.61.39Z" fill="#fff"/>
    <path d="M35.7,77.64c1.28,1.2.62,8.51.81,10.59.14,1.53.68,3.67,1.54,4.94.31.46,1.12.94,1.26,1.38.12.42.14,4.84.02,5.2-.07.19-.17.31-.37.35-5.41.97-10.34,3.39-15.19,5.8l1.2-15.72-.68-6.43c.65-.89,1.75-1.55,1.65-2.8,2.88,1.16,7.44-5.49,9.77-3.31Z" fill="#4d4d4d"/>
  </g>
  <g id="New_Typography" data-name="New Typography">
    <g>
      <path d="M9.48,17.01c-1.08,3.19-1.19,3.67.9,3.91l.61.08.08.45h-5.89l.08-.45.5-.08c1.56-.24,1.82-.55,3.51-5.23l3.01-8.37-.21-.9c.82-.24,2.06-1.11,2.4-1.93h.48l4.7,13.73c.74,2.17,1.16,2.59,2.19,2.67l.79.11.08.45h-8.18l.08-.45.77-.08c1.27-.11,1.29-.69.69-2.51l-1.16-3.56h-4.67l-.74,2.17ZM12.7,8.06h-.11l-2.16,6.2h4.28l-2.01-6.2Z" fill="#333"/>
      <path d="M25.05,21.02l1.24-.11c.82-.08,1.14-.26,1.14-.47V5.47h-.63c-2.48.11-3.93,1.9-4.7,3.64l-.29.95h-.71l.69-5.12h14.94l.34,5.09h-.63l-.29-.92c-.77-1.9-2.19-3.62-4.59-3.64h-.69v15.05c0,.21.18.29,1.35.4l1.03.11.08.42h-8.34l.08-.42Z" fill="#333"/>
      <path d="M38.56,21.02l.95-.11c.84-.11,1.19-.26,1.19-.47V5.87c0-.21-.16-.29-1.37-.4l-.74-.11-.08-.42h13.75l.18,5.41h-.69l-.24-.87c-.84-3.04-2.11-4.01-5.62-3.99l-1.77.03v7.23l.98-.03c2.09-.08,3.01-.53,3.46-1.98l.29-.84h.55l-.66,6.34-.53-.03-.11-.82c-.13-1.56-.74-1.98-3.19-2.09l-.79-.03v7.52l2.19.08c3.64-.03,5.07-1.5,6.02-4.07l.26-.79h.69l-.69,5.41h-14.12l.08-.42Z" fill="#333"/>
      <path d="M54.9,21.02l1-.13c.87-.08,1.14-.26,1.14-.45V5.9c0-.21-.13-.32-1.35-.42l-.77-.11-.08-.42h8.13l-.08.42-1.29.13c-.77.05-1.16.24-1.16.45v14.86l1.5.11c3.3,0,4.41-1.27,5.81-4.43l.32-.87h.69l-.77,5.83h-13.17l.08-.42Z" fill="#333"/>
      <path d="M70.34,21.02l1.08-.11c.82-.08,1.16-.26,1.16-.47V5.87c0-.21-.16-.29-1.37-.4l-.87-.11-.08-.42h8.05l-.08.42-1.08.11c-.87.08-1.16.29-1.16.47v14.57c0,.21.18.29,1.35.4l.87.11.08.42h-8.02l.08-.42Z" fill="#333"/>
      <path d="M79.76,21.02l.95-.11c.84-.11,1.19-.26,1.19-.47V5.87c0-.21-.16-.29-1.37-.4l-.74-.11-.08-.42h13.75l.18,5.41h-.69l-.24-.87c-.84-3.04-2.11-4.01-5.62-3.99l-1.77.03v7.23l.98-.03c2.08-.08,3.01-.53,3.46-1.98l.29-.84h.55l-.66,6.34-.53-.03-.11-.82c-.13-1.56-.74-1.98-3.19-2.09l-.79-.03v7.52l2.19.08c3.64-.03,5.07-1.5,6.02-4.07l.26-.79h.69l-.69,5.41h-14.12l.08-.42Z" fill="#333"/>
      <path d="M95.97,21.02l1.11-.11c.69-.08,1.16-.26,1.16-.47V5.87c0-.21-.16-.29-1.37-.4l-.87-.11-.08-.42,7.87-.03c4.46,0,6.71,1.45,6.71,4.17,0,2.03-1.53,3.62-3.99,4.2l3.43,5.41c1.08,1.69,1.5,2.11,2.64,2.24l.42.08.11.42h-5.54l-.47-.92-3.93-7c-.34-.08-1.16-.18-1.48-.32v7.31c0,.21.4.32,1.32.4l.95.11.08.42h-8.13l.08-.42ZM106.84,9.2c0-2.35-1.48-3.77-4.12-3.72-.05,0-1.06.03-1.06.03v7.18c.32.08,1.08.21,1.4.21,2.35-.08,3.77-1.32,3.77-3.7Z" fill="#333"/>
    </g>
    <g>
      <path d="M129.77,5.34c5.01,0,8.71,3.67,8.71,9.63,0,1.68-.45,3.44-.87,4.23l.53,1.86-5.41.05v-.68l4.33-2.13c.52-.74.84-2,.84-3.39,0-3.75-3.44-5.85-7.9-5.85-5.28,0-8.14,2.68-8.14,5.75,0,1.15.42,2.31.74,2.81h5.41c.21,0,.34-.39.42-1.55l.08-.95.45-.08v8l-.45-.08-.11-1.08c-.08-.81-.21-1.02-.39-1.02h-4.75l.13,1.52-.32.05c-.92-2.02-1.78-5.38-1.78-7.85,0-5.67,3.57-9.26,8.48-9.26Z" fill="#4d4d4d"/>
      <path d="M122.14,23.97l.1,1.1c.08.68.26,1.15.47,1.15h14.49c.21,0,.29-.16.39-1.36l.11-.87.42-.08.03,7.82c0,4.44-1.44,6.67-4.15,6.67-2.02,0-3.59-1.52-4.17-3.96l-5.38,3.41c-1.68,1.08-2.1,1.5-2.23,2.62l-.08.42-.42.1v-5.51l.92-.47,6.96-3.91c.08-.34.18-1.15.31-1.47h-7.27c-.21,0-.32.39-.39,1.31l-.1.94-.42.08v-8.08l.42.08ZM133.89,34.78c2.34,0,3.75-1.47,3.7-4.09,0-.05-.03-1.05-.03-1.05h-7.14c-.08.32-.21,1.08-.21,1.39.08,2.33,1.31,3.75,3.67,3.75Z" fill="#4d4d4d"/>
      <path d="M126.97,42.89h10.26c.18,0,.29-.13.37-1.31l.11-.89.42-.08v8l-.42-.08-.11-1.1c-.08-.84-.24-1.13-.45-1.13h-9.4c-3.44,0-5.09,1.58-5.09,4.54s1.73,4.62,5.38,4.62l7.27-.03c1.73,0,2.15-.45,2.28-1.94l.11-.79.42-.08v5.93l-.42-.08-.11-.73c-.1-1.23-.6-1.65-2.41-1.65l-7.3-.05c-4.17-.03-6.61-2-6.61-6.35s1.76-6.8,5.7-6.8ZM141.22,46.04c.76,0,1.65.6,1.65,1.65s-.89,1.6-1.65,1.6-1.63-.55-1.63-1.6.84-1.65,1.63-1.65ZM141.22,51.34c.76,0,1.65.55,1.65,1.6s-.89,1.6-1.65,1.6-1.63-.55-1.63-1.6.84-1.6,1.63-1.6Z" fill="#4d4d4d"/>
      <path d="M135.39,62.33v-.08l-10.89.03c-1.73,0-2.13.45-2.26,1.94l-.1.79-.42.08v-5.93l.42.08.1.74c.11,1.26.6,1.65,2.39,1.65l11.1.08c.92-.53,1.63-1.26,1.81-2.28l.16-.55.42-.08v5.85l-11.47,9.13v.08l8.66-.03c1.73,0,2.15-.42,2.28-1.94l.11-.76.42-.08v5.91l-.42-.08-.11-.73c-.1-1.23-.6-1.65-2.41-1.65l-13.62-.08v-.92l13.83-11.15Z" fill="#4d4d4d"/>
      <path d="M122.14,77.89l.1.94c.11.84.26,1.18.47,1.18h14.49c.21,0,.29-.16.39-1.36l.11-.74.42-.08v13.67l-5.38.18v-.68l.87-.24c3.02-.84,3.99-2.1,3.96-5.59l-.03-1.76h-7.19l.03.97c.08,2.07.52,2.99,1.97,3.44l.84.29v.55l-6.3-.66.03-.52.81-.11c1.55-.13,1.97-.73,2.07-3.18l.03-.79h-7.48l-.08,2.18c.03,3.62,1.5,5.04,4.04,5.98l.79.26v.68l-5.38-.68v-14.04l.42.08Z" fill="#4d4d4d"/>
      <path d="M135.39,97.17v-.08l-10.89.03c-1.73,0-2.13.45-2.26,1.94l-.1.79-.42.08v-5.93l.42.08.1.73c.11,1.26.6,1.65,2.39,1.65l11.1.08c.92-.53,1.63-1.26,1.81-2.28l.16-.55.42-.08v5.85l-11.47,9.13v.08l8.66-.03c1.73,0,2.15-.42,2.28-1.94l.11-.76.42-.08v5.91l-.42-.08-.11-.74c-.1-1.23-.6-1.65-2.41-1.65l-13.62-.08v-.92l13.83-11.15Z" fill="#4d4d4d"/>
      <path d="M135.05,114.73c2.05-.79,2.41-1.02,2.52-2.1l.1-.76.45-.08v8.03l-.45-.08-.05-.92c-.08-1.26-.45-1.26-1.99-.74l-10.13,3.62v.11l8.27,3.12,1.29-.45c1.92-.71,2.44-1.02,2.52-2.05l.1-.87.45-.08v8.14l-.45-.08-.05-.89c-.08-1.26-.42-1.36-2.07-.79l-9.92,3.39v.1l7.43,2.6c3.57,1.23,4.25,1.34,4.54-.92l.08-.66.45-.08v6.04l-.45-.08-.08-.47c-.26-1.58-.68-1.79-4.59-3.2l-11.57-4.15v-1.02l11.52-4.09v-.08l-11.52-4.38v-1.05l13.62-5.09Z" fill="#4d4d4d"/>
      <path d="M126.13,139.13c-3.18-1.08-3.65-1.18-3.88.89l-.08.6-.45.08v-5.85l.45.08.08.5c.24,1.55.55,1.81,5.2,3.49l8.32,2.99.89-.21c.24.81,1.1,2.05,1.92,2.39v.47l-13.65,4.67c-2.15.74-2.57,1.16-2.65,2.18l-.1.79-.45.08v-8.14l.45.08.08.76c.11,1.26.68,1.29,2.49.68l3.54-1.15v-4.65l-2.15-.74ZM135.02,142.33v-.11l-6.17-2.15v4.25l6.17-1.99Z" fill="#4d4d4d"/>
      <path d="M122.14,152.88l.13,1c.08.87.26,1.13.45,1.13h14.46c.21,0,.32-.13.42-1.34l.11-.76.42-.08v8.08l-.42-.08-.13-1.29c-.05-.76-.24-1.15-.45-1.15h-14.78l-.11,1.5c0,3.28,1.26,4.38,4.41,5.77l.87.32v.68l-5.8-.76v-13.1l.42.08Z" fill="#4d4d4d"/>
      <path d="M122.14,168.02l.1.97c.11.84.26,1.16.47,1.16h14.49c.21,0,.29-.18.39-1.37l.11-.73.42-.08s.05,7.61.05,7.48c.05,6.11-3.15,9.42-8,9.42-4.59,0-8.45-3.73-8.45-9.76v-7.17l.42.08ZM129.59,181.16c4.78,0,7.98-1.99,7.98-6.38v-1.23h-14.88l-.45,1.79c.03,3.81,3.39,5.83,7.35,5.83Z" fill="#4d4d4d"/>
    </g>
  </g>
</svg>