<?xml version="1.0" encoding="UTF-8"?>
<svg id="Layer_1" data-name="Layer 1" xmlns="http://www.w3.org/2000/svg" viewBox="0 0 108.77 155.28">
  <defs>
    <style>
      .cls-1 {
        fill: #fff;
      }
    </style>
  </defs>
  <path class="cls-1" d="M0,155.28,60.24,3.6c-.01-1.2,0-2.4,0-3.6H5.52v150.24h54.72c0-13.68,0-27.36,0-41.04,6.5.05,12.74-2.07,19.2-2.64l-.23,17.15c.28,1.52,3.75,1.15,3.81-.22.02-.32-.23-.77-.23-1.21,0-5.56-.43-11.08-.19-16.66,5.16-1.34,9.8-7.05,15.09-2.56,3.57,3.03,2.81,9.25,1.85,13.37-.72,3.1-2.14,5.75-2.73,9.03-1.31,7.24-.12,14.09,2.06,21.02l2.5.59c1.51-.82.95-2.4,1.15-3.67.12-.78.72-1.19.73-2.17,0-1.8-1.85-5.41-2.11-7.75-.92-8.14,5.14-17.75,5.7-26.08.3-4.5-1.33-9.45-.74-13.7.14-1.02,1.73-2.72,2.18-4.06,1.41-4.18.04-10.3-5.05-10.93.24-1.05.74-2.12.73-3.23-.04-3.59-1.96-9.02-2.57-12.81-.46-2.87-1.15-9.28-.01-11.86.4-.9,1.32-1.35,1.56-2.76.12-.74.19-3.59,0-4.21-.37-1.24-3.68-2.9-3.91-3.29s-.12-1.29-.55-2.09c-1.49-2.79-6.76-2.24-8.07.57-3.88,0-5.03-2.52-4.95-6.05.17-6.98,3.63-15.02-.42-21.64-3.17-5.17-10.62-6.48-16.24-6.8-1.55-.09-3.93.28-5.29.01-.66-.13-.58-.78-.99-.93-.48-.16-1.63-.03-2.24-.04Z"/>
  <path class="cls-1" d="M60.24,3.6c.17,19.59,0,39.21,0,58.8-5.76,0-11.52,0-17.28,0v3.36c1.56-.04,3.13.05,4.69,0,4.18-.12,8.38-.24,12.59-.25,0,14.56,0,29.12,0,43.68-6.47-.05-12.82-2.01-19.2-2.88v16.68c0,.13.37.44.22.92-.3.94-3.36.95-3.77-.22l.32-18.1c-5.08-1.45-10.24-7.26-15.38-2.4-5.78,5.47.26,16.69,1.26,23,.77,4.87.45,9.17-.53,13.97-.43,2.1-1.05,4.19-1.68,6.24-1.54.43-3,1.26-3.43-.9-.17-.84.14-1.56.07-2.11-.04-.31-.61-.84-.74-1.31-.45-1.6,1.73-6.14,1.98-8.35.96-8.42-5.12-18-5.69-26.58-.29-4.31,1.45-9.7.71-13.67-.13-.68-1.33-2.01-1.71-2.85-1.38-2.99-1.34-8.68,1.64-10.68.59-.39,2.85-1.06,2.95-1.39-1.07-2.52-.38-5,.08-7.58,1.02-5.7,3.82-14.22,1.93-19.83-.39-1.17-1.44-1.54-1.7-3.34-.36-2.53-.33-4.01,1.61-5.7.48-.41,2.11-1.28,2.28-1.56.25-.43.21-1.3.6-2.04,1.14-2.16,5.08-2.3,6.85-.84.55.46.75,1.36,1.45,1.45,4.09-.23,4.82-3.04,4.68-6.62-.28-6.95-3.52-14.53.46-21.12,3.42-5.65,12.33-6.77,18.37-6.85.95-.01,1.87.45,2.87.25.87-.17.97-1.13,1.26-1.2.48-.12,1.63,0,2.23,0ZM35.7,43.74c-2.33-2.18-6.88,4.47-9.77,3.31.09,1.25-1.01,1.91-1.65,2.8l.68,6.43-1.2,15.72c4.85-2.41,9.79-4.84,15.19-5.8.21-.04.31-.15.37-.35.12-.36.11-4.78-.02-5.2-.13-.44-.94-.93-1.26-1.38-.87-1.27-1.4-3.41-1.54-4.94-.19-2.08.47-9.39-.81-10.59Z"/>
  <path class="cls-1" d="M60.24,62.4c5.68,0,11.36,0,17.04,0v3.36c-5.65-.38-11.36-.26-17.04-.24,0-1.04,0-2.08,0-3.12Z"/>
  <path d="M60.24,109.2c0,13.68,0,27.36,0,41.04H5.52V0h54.72c0,1.2-.01,2.4,0,3.6-.6,0-1.75-.12-2.23,0-.28.07-.38,1.03-1.26,1.2-1,.2-1.92-.27-2.87-.25-6.03.09-14.95,1.2-18.37,6.85-3.99,6.59-.74,14.16-.46,21.12.14,3.57-.59,6.38-4.68,6.62-.7-.09-.9-.99-1.45-1.45-1.76-1.46-5.71-1.32-6.85.84-.39.74-.35,1.61-.6,2.04-.17.29-1.8,1.15-2.28,1.56-1.94,1.69-1.98,3.17-1.61,5.7.26,1.8,1.31,2.17,1.7,3.34,1.88,5.61-.91,14.13-1.93,19.83-.46,2.58-1.15,5.06-.08,7.58-.1.33-2.36,1-2.95,1.39-2.98,2-3.02,7.7-1.64,10.68.39.84,1.59,2.17,1.71,2.85.74,3.97-.99,9.36-.71,13.67.57,8.58,6.65,18.16,5.69,26.58-.25,2.21-2.43,6.76-1.98,8.35.13.46.7.99.74,1.31.07.55-.24,1.27-.07,2.11.43,2.16,1.89,1.33,3.43.9.62-2.05,1.25-4.14,1.68-6.24.98-4.81,1.3-9.1.53-13.97-1-6.31-7.04-17.53-1.26-23,5.14-4.86,10.3.95,15.38,2.4l-.32,18.1c.41,1.17,3.47,1.16,3.77.22.15-.47-.22-.78-.22-.92v-16.68c6.38.87,12.73,2.83,19.2,2.88Z"/>
  <path d="M60.24,3.6c.61,0,1.76-.13,2.24.04.42.14.34.8.99.93,1.36.26,3.75-.1,5.29-.01,5.62.33,13.07,1.63,16.24,6.8,4.06,6.62.59,14.65.42,21.64-.09,3.53,1.06,6.06,4.95,6.05,1.31-2.81,6.59-3.36,8.07-.57.43.81.32,1.7.55,2.09s3.55,2.05,3.91,3.29c.19.62.12,3.48,0,4.21-.24,1.41-1.17,1.86-1.56,2.76-1.13,2.58-.45,8.99.01,11.86.61,3.79,2.54,9.22,2.57,12.81.01,1.11-.49,2.17-.73,3.23,5.09.63,6.46,6.75,5.05,10.93-.45,1.34-2.04,3.04-2.18,4.06-.59,4.25,1.04,9.2.74,13.7-.56,8.34-6.62,17.94-5.7,26.08.26,2.34,2.12,5.95,2.11,7.75,0,.99-.61,1.39-.73,2.17-.2,1.27.37,2.86-1.15,3.67l-2.5-.59c-2.17-6.93-3.37-13.78-2.06-21.02.59-3.28,2.01-5.93,2.73-9.03.96-4.12,1.72-10.34-1.85-13.37-5.28-4.49-9.93,1.22-15.09,2.56-.23,5.57.2,11.1.19,16.66,0,.44.25.89.23,1.21-.07,1.37-3.53,1.73-3.81.22l.23-17.15c-6.46.57-12.7,2.69-19.2,2.64,0-14.56,0-29.12,0-43.68,5.68-.02,11.39-.14,17.04.24v-3.36c-5.68,0-11.36,0-17.04,0,0-19.59.17-39.21,0-58.8ZM94.3,47.07c-.1-.09-1.81-.06-2.61-.39-1.72-.69-6.15-5.79-7.33-1.81-1.32,4.42,1.01,10.11-1.92,14.4-.31.46-1.12.94-1.26,1.38-.11.36-.16,4.87-.06,5.2,5.37,1.39,10.61,3.28,15.37,6.15.04-6.85-1.63-13.65-.71-20.51.06-.45.45-.82.45-1.21,0-.83-1.21-1.53-1.64-2.19-.2-.31-.24-.97-.29-1.02Z"/>
  <path d="M60.24,62.4c0,1.04,0,2.08,0,3.12-4.21.01-8.41.13-12.59.25-1.56.04-3.13-.05-4.69,0v-3.36c5.76,0,11.52,0,17.28,0Z"/>
  <path class="cls-1" d="M94.3,47.07c.06.05.1.72.29,1.02.43.67,1.65,1.36,1.64,2.19,0,.39-.39.76-.45,1.21-.92,6.86.74,13.66.71,20.51-4.76-2.87-10-4.76-15.37-6.15-.09-.34-.04-4.84.06-5.2.13-.44.94-.93,1.26-1.38,2.93-4.29.6-9.97,1.92-14.4,1.19-3.98,5.62,1.12,7.33,1.81.8.32,2.51.3,2.61.39Z"/>
  <path d="M35.7,43.74c1.28,1.2.62,8.51.81,10.59.14,1.53.68,3.67,1.54,4.94.31.46,1.12.94,1.26,1.38.12.42.14,4.84.02,5.2-.07.19-.17.31-.37.35-5.41.97-10.34,3.39-15.19,5.8l1.2-15.72-.68-6.43c.65-.89,1.75-1.55,1.65-2.8,2.88,1.16,7.44-5.49,9.77-3.31Z"/>
</svg>